<?xml version="1.0" encoding="UTF-8" standalone="no"?>
<!-- Created with Inkscape (http://www.inkscape.org/) -->

<svg
   width="106.85725mm"
   height="277.37811mm"
   viewBox="0 0 106.85725 277.37811"
   version="1.1"
   id="svg5"
   xml:space="preserve"
   inkscape:version="1.2.2 (b0a8486541, 2022-12-01)"
   sodipodi:docname="aikido.svg"
   xmlns:inkscape="http://www.inkscape.org/namespaces/inkscape"
   xmlns:sodipodi="http://sodipodi.sourceforge.net/DTD/sodipodi-0.dtd"
   xmlns="http://www.w3.org/2000/svg"
   xmlns:svg="http://www.w3.org/2000/svg"><sodipodi:namedview
     id="namedview7"
     pagecolor="#ffffff"
     bordercolor="#666666"
     borderopacity="1.0"
     inkscape:showpageshadow="2"
     inkscape:pageopacity="0.0"
     inkscape:pagecheckerboard="0"
     inkscape:deskcolor="#d1d1d1"
     inkscape:document-units="mm"
     showgrid="false"
     inkscape:zoom="1.2938725"
     inkscape:cx="236.11291"
     inkscape:cy="442.85663"
     inkscape:window-width="3840"
     inkscape:window-height="2025"
     inkscape:window-x="0"
     inkscape:window-y="32"
     inkscape:window-maximized="1"
     inkscape:current-layer="layer1" /><defs
     id="defs2" /><g
     inkscape:label="Ebene 1"
     inkscape:groupmode="layer"
     id="layer1"
     transform="translate(-48.921276,-9.698085)"><path
       style="fill:#000000;stroke-width:0.264583"
       d="m 109.31482,286.81628 c -3.76103,-0.43595 -10.33299,-2.50383 -23.03949,-7.24945 -1.81901,-0.67934 -4.73604,-1.71645 -6.482292,-2.30465 l -3.175,-1.06945 -2.04292,-0.12991 -2.04291,-0.12988 -2.31424,0.72152 c -3.0836,0.96144 -6.69934,2.80667 -12.00682,6.12754 -5.34967,3.34727 -5.47491,3.38082 -4.35223,1.16533 l 0.6565,-1.29556 1.52631,-1.24598 c 0.83947,-0.68527 2.98482,-2.20263 4.76745,-3.37185 l 3.24115,-2.1259 v -1.9105 -1.9105 l 0.52641,-1.68154 c 0.72531,-2.31682 1.74434,-3.94919 4.08495,-6.54359 3.88696,-4.3084 5.37234,-7.12835 5.21937,-9.90874 l -0.0412,-0.74792 -2.78022,-2.88422 c -1.52912,-1.58632 -3.13646,-3.44596 -3.57187,-4.13253 l -0.79166,-1.24831 v -0.86503 -0.86504 l 0.75056,-0.8691 c 1.02594,-1.18798 4.33321,-5.46397 4.92378,-6.36599 l 0.48082,-0.73438 -0.47275,-0.52239 -0.47276,-0.52239 h -1.2904 c -1.58167,0 -2.50308,0.37115 -4.76374,1.91886 -2.16857,1.48466 -4.34679,2.33017 -6.46416,2.50916 l -1.62012,0.13696 -0.5627,-0.56269 c -0.30948,-0.30949 -0.5627,-0.80061 -0.5627,-1.09138 v -0.52869 l 1.25678,-0.79592 c 1.29243,-0.81852 3.5676,-1.57708 6.18701,-2.06281 1.71699,-0.31839 6.66841,-2.57674 8.11243,-3.70009 0.53913,-0.41941 1.19526,-0.84069 1.45806,-0.93618 l 0.4778,-0.17363 0.96772,0.40434 c 1.42254,0.59438 1.90653,1.12099 2.77431,3.01861 l 0.78125,1.70842 1.9569,1.87609 1.956912,1.8761 v 0.62364 0.62365 l -1.01809,0.96849 -1.018102,0.96849 -1.4293,0.42535 c -0.78611,0.23394 -2.57625,0.62162 -3.97808,0.86152 l -2.54878,0.43616 -0.82466,0.80626 c -0.96779,0.94619 -1.01352,1.32257 -0.28499,2.3457 l 0.53966,0.75789 2.94886,1.77672 2.94886,1.77672 1.76665,1.73957 c 0.97166,0.95676 2.021202,2.24084 2.332312,2.85351 l 0.56566,1.11393 v 1.21783 1.21782 l -0.71799,1.46632 -0.71798,1.46632 -1.067952,0.9232 c -0.58738,0.50775 -2.8319,1.80958 -4.98782,2.89295 l -3.91987,1.96975 -1.19452,1.19452 c -1.30154,1.30154 -2.0531,2.76802 -2.3463,4.57822 l -0.18839,1.16311 0.6251,-0.20164 c 0.3438,-0.11089 1.63713,-0.47929 2.87406,-0.81868 l 2.24895,-0.61706 2.82806,-0.0138 2.82805,-0.0137 3.786532,0.65497 c 4.54092,0.78547 8.09517,1.6904 11.54671,2.93989 7.06007,2.55583 18.65597,4.45347 27.29712,4.46718 l 4.89479,0.008 2.77813,-1.34199 c 3.22925,-1.55994 6.11414,-3.20183 15.21354,-8.65873 8.6261,-5.17304 10.88989,-6.26571 11.37043,-5.48817 0.28114,0.4549 -0.49129,1.32419 -2.11001,2.3746 l -1.5875,1.03013 -6.48042,6.29007 -6.48042,6.29005 -2.63074,1.70714 c -3.42745,2.2242 -5.36433,3.10058 -7.95634,3.60003 -4.3855,0.84503 -14.50671,1.18703 -19.16156,0.64749 z m -14.4981,-12.72312 c -0.15043,-0.18815 -0.60503,-1.02619 -1.01024,-1.8623 l -0.73674,-1.52024 -0.86419,-0.50988 c -0.4753,-0.28043 -1.06394,-0.81473 -1.30808,-1.18734 l -0.4439,-0.67747 0.3297,-3.72123 0.3297,-3.72123 -0.16212,-5.34515 c -0.23322,-7.68904 -0.53582,-8.76686 -3.18745,-11.35346 l -1.57722,-1.53854 1.27154,-1.86097 1.27155,-1.86098 0.75393,-0.38987 0.75394,-0.38988 0.86337,0.36178 c 0.47485,0.19898 1.26111,0.69715 1.74725,1.10704 l 0.88389,0.74526 1.95085,-0.30329 1.95086,-0.30329 1.59934,-1.21631 c 2.57427,-1.95775 3.4468,-3.47526 3.4468,-5.99475 v -1.30126 l -0.46302,0.14599 c -0.25466,0.0803 -2.21031,0.49948 -4.34589,0.93152 -5.13908,1.03965 -6.73187,1.46593 -8.49724,2.27415 l -1.47433,0.67497 -0.89778,-0.37512 c -1.43577,-0.5999 -4.16549,-4.48328 -4.16549,-5.92594 v -0.51623 l 1.31217,-0.71417 1.31217,-0.71418 2.19356,-0.23331 c 1.20645,-0.12833 3.35441,-0.31323 4.77324,-0.4109 1.41883,-0.0977 2.57969,-0.22997 2.57969,-0.29399 0,-0.68467 -3.70221,-6.56453 -6.37801,-10.12959 -1.31887,-1.75717 -1.36525,-2.02924 -0.40794,-2.39311 l 0.56824,-0.21598 0.92604,0.38085 c 0.50933,0.20947 1.2237,0.66046 1.5875,1.0022 0.36381,0.34174 2.38787,1.748 4.49792,3.12503 2.11005,1.37701 4.30241,2.87949 4.87191,3.33883 l 1.03546,0.83517 0.59359,-0.55766 c 1.2597,-1.18342 3.15302,-5.4682 4.76248,-10.77795 0.51408,-1.69599 1.1256,-3.29457 1.35892,-3.5524 l 0.42424,-0.46877 h 0.73026 0.73027 l 3.27651,2.61638 c 5.35985,4.28 5.58422,4.66276 3.84605,6.56093 l -1.12448,1.22799 -1.85208,0.85936 c -1.01865,0.47265 -3.16177,1.35469 -4.7625,1.96008 -1.60073,0.60539 -3.77362,1.51337 -4.82865,2.01772 l -1.91823,0.91701 v 0.61583 c 0,0.33871 -0.24677,0.92955 -0.54837,1.31297 -0.3016,0.38343 -0.47613,0.69714 -0.38783,0.69714 2.7674,0 29.61369,-3.45444 31.02943,-3.99271 0.96428,-0.36661 3.14951,-0.28732 4.20212,0.15249 l 0.94085,0.39311 -0.10899,0.33449 c -0.19757,0.60637 -1.3429,0.95403 -6.68928,2.03054 -4.92775,0.99222 -24.1153,5.66709 -24.39081,5.9426 -0.0681,0.0681 0.30727,1.17527 0.83422,2.46032 0.52695,1.28505 1.02747,2.82677 1.11226,3.42605 l 0.15418,1.08959 -0.29576,0.18279 c -0.71686,0.44304 -0.0869,0.57745 3.03602,0.64774 l 3.33179,0.075 -0.18284,-0.57608 -0.18284,-0.57607 0.4401,-1.15239 0.4401,-1.15239 0.95019,-0.83427 0.95018,-0.83428 1.62547,0.10351 1.62547,0.1035 1.53153,0.74931 1.53153,0.74931 1.71371,1.60308 c 0.94253,0.88169 1.9143,1.96913 2.15949,2.41653 l 0.44579,0.81344 v 15.875 15.875 l -0.52916,0.89561 c -0.29104,0.49261 -0.77647,1.059 -1.07873,1.25868 l -0.54956,0.36304 -2.51011,-2.09513 -2.5101,-2.09516 -0.62602,-1.18007 -0.62603,-1.18006 -2.92889,0.10531 c -4.14701,0.14911 -16.4263,0.86129 -18.03873,1.04623 l -1.35149,0.15502 -0.303,2.15701 -0.303,2.15702 -0.49021,0.66146 c -0.57381,0.77425 -1.16551,0.95533 -1.55004,0.47437 z m 12.49299,-9.07256 c 4.07458,-0.35725 8.56919,-0.72951 9.98802,-0.82724 l 2.57969,-0.17768 v -2.47449 -2.47448 l -4.0349,10e-4 c -3.87937,8e-4 -18.41981,0.93434 -18.68499,1.19952 -0.16967,0.16967 -0.0884,3.42198 0.11724,4.69243 l 0.16157,0.99809 1.23251,-0.14376 c 0.67789,-0.0792 4.56627,-0.43618 8.64086,-0.79344 z m -3.57188,-8.05907 c 4.5226,-0.4306 13.87776,-1.06982 15.6571,-1.06982 h 0.48249 v -2.61535 -2.61535 l -1.5004,-0.18746 c -0.82522,-0.10311 -3.11717,-0.11234 -5.09323,-0.0205 -8.0967,0.3762 -13.72554,0.68628 -15.03606,0.82831 l -1.38907,0.15053 v 0.99938 c 0,0.54965 0.077,1.9103 0.17112,3.02367 l 0.17111,2.02429 0.55649,-5.3e-4 c 0.30607,-2.6e-4 2.99727,-0.23301 5.98045,-0.51705 z m 1.19063,-8.86178 c 2.76489,-0.20844 6.51536,-0.44877 8.33437,-0.53407 1.81902,-0.0853 4.05144,-0.22084 4.96094,-0.30121 l 1.65365,-0.14613 -0.002,-1.368 c -0.002,-1.60391 -0.39376,-3.18066 -0.92221,-3.7091 l -0.37457,-0.37458 -2.98889,0.10886 c -5.66521,0.20634 -18.6007,0.90696 -19.22235,1.04113 l -0.62303,0.13447 0.1634,0.58331 c 0.0899,0.32083 0.29404,1.47629 0.45371,2.56769 0.15967,1.09141 0.33746,2.14481 0.39508,2.3409 l 0.10477,0.35652 1.51976,-0.1604 c 0.83598,-0.0882 3.78206,-0.33095 6.54696,-0.53939 z M 72.055598,226.52894 c -1.16163,-0.27484 -1.57027,-0.66212 -1.76109,-1.66906 l -0.16116,-0.85047 -2.04932,-2.97462 c -1.12713,-1.63604 -2.75432,-3.8786 -3.61597,-4.98347 l -1.56664,-2.00886 0.37602,-0.23799 c 0.67938,-0.43 1.71321,-0.25755 2.63971,0.44032 0.50122,0.37753 2.10193,1.46375 3.55714,2.41381 4.87577,3.18325 9.12812,6.84246 9.12812,7.85487 0,1.20673 -4.33037,2.53986 -6.54681,2.01547 z M 93.7636,190.56711 c -1.37439,-0.9956 -2.69854,-2.63726 -3.90542,-4.84185 l -0.96988,-1.77165 0.18804,-5.17366 0.18804,-5.17366 h -0.26022 c -0.48184,0 -4.42237,2.53025 -8.020502,5.15004 l -3.57187,2.60067 -3.18585,1.53487 c -1.75222,0.84418 -4.193,1.90996 -5.42396,2.36841 l -2.23811,0.83353 -2.11667,0.12139 -2.11666,0.12139 -0.39688,-0.2722 -0.39687,-0.2722 0.28506,-0.47055 c 0.15678,-0.25881 1.7722,-1.25211 3.58982,-2.20734 8.88272,-4.66822 13.91545,-9.9895 14.02447,-14.82855 l 0.0294,-1.30539 0.79601,-0.66979 0.796,-0.6698 0.685762,0.0802 0.68576,0.0802 2.12156,2.54753 c 1.16686,1.40114 2.65735,2.99499 3.31219,3.5419 l 1.19063,0.99438 0.17227,-1.42524 c 0.0948,-0.78388 0.18404,-3.18141 0.19843,-5.32784 l 0.0262,-3.9026 -0.85989,2.2e-4 c -1.7447,5.3e-4 -6.73003,0.56392 -8.449562,0.95501 l -1.77266,0.40319 -1.11428,0.80718 c -4.39607,3.18449 -9.03215,1.3803 -11.24042,-4.37436 l -0.15287,-0.39839 1.14536,-0.16605 1.14536,-0.16605 4.81632,0.54358 c 5.71181,0.64465 6.97194,0.66507 10.201642,0.16533 1.3445,-0.20804 3.31924,-0.45941 4.3883,-0.55858 l 1.94376,-0.18033 -0.17604,-3.60861 c -0.21333,-4.37278 -0.57432,-7.62434 -0.97365,-8.76985 l -0.29701,-0.852 -1.53933,0.17416 -1.53934,0.17415 -0.52621,-0.52621 c -1.32383,-1.32383 -1.05075,-2.88915 0.68111,-3.90409 l 1.2693,-0.74386 1.45891,0.0105 1.45891,0.0105 1.42067,0.73314 c 0.78137,0.40323 1.70411,1.03897 2.05053,1.41276 l 0.62984,0.67962 -6e-5,7.43584 -7e-5,7.43585 3.10892,-0.17434 c 1.70991,-0.0959 5.47255,-0.26242 8.36142,-0.37007 l 5.2525,-0.19572 -0.095,0.49305 c -0.24633,1.27907 -3.01108,2.22753 -6.52046,2.23688 -1.12063,0.003 -3.82344,0.18012 -6.00625,0.39363 -2.18281,0.21352 -4.01292,0.38967 -4.0669,0.39145 -0.054,0.002 -0.033,2.59285 0.0465,5.75793 l 0.14468,5.75469 0.5322,2.38125 c 0.95456,4.27096 2.13531,9.21952 2.67879,11.2269 0.29283,1.08156 0.53241,2.34303 0.53241,2.80326 v 0.83678 l -0.48385,0.43788 c -0.26612,0.24084 -0.84357,0.43788 -1.28322,0.43788 h -0.79937 z m 42.2534,-5.819 c -3.58348,-1.1608 -6.5846,-3.19538 -10.06183,-6.82132 l -2.24129,-2.33713 -2.01105,-3.04221 c -6.09183,-9.21538 -10.11538,-17.1339 -11.3599,-22.35678 l -0.50436,-2.11667 -0.25929,-3.89783 -0.25929,-3.89784 0.16155,-4.13669 0.16156,-4.13669 -1.69587,0.1873 c -6.33242,0.69937 -17.20913,3.43053 -28.286482,7.10278 -4.58391,1.51961 -9.27279,2.97111 -10.41973,3.22557 l -2.08535,0.46264 -1.48653,-0.33076 c -6.28289,-1.39796 -7.58907,-4.47878 -2.28027,-5.37831 9.97374,-1.68997 22.709492,-4.01638 32.808342,-5.99302 4.51114,-0.88296 9.30341,-1.74635 10.64948,-1.91865 l 2.44739,-0.31327 v -0.69921 -0.69921 l 0.52649,-0.47647 0.52648,-0.47646 1.33058,-0.12785 1.33057,-0.12785 2.50089,1.90459 c 5.28647,4.02601 5.59651,5.01884 3.53729,11.32705 l -1.3602,4.16685 -0.12603,2.9172 -0.12603,2.9172 0.56616,2.95922 c 0.79974,4.18009 2.40017,8.84296 4.55366,13.26707 l 1.85185,3.80444 2.16759,2.14868 2.16758,2.14869 1.53719,0.75573 c 2.15808,1.06097 3.95996,1.48644 6.31059,1.49008 l 2.02695,0.003 1.57249,-0.48941 c 0.86487,-0.26918 2.25767,-0.94421 3.0951,-1.50006 l 1.52261,-1.01065 1.28317,-1.6088 c 0.70575,-0.88483 2.06398,-3.1566 3.01828,-5.04837 0.9543,-1.89177 2.23076,-4.21281 2.83656,-5.15787 l 1.10146,-1.71828 0.22261,0.79224 c 0.26421,0.94035 0.15831,1.92085 -0.88574,8.20058 -0.43549,2.61937 -0.85042,5.83406 -0.92207,7.14375 -0.0717,1.30968 -0.17914,2.62717 -0.23888,2.92774 l -0.1086,0.54648 -2.0104,1.50161 c -2.47771,1.85064 -4.85051,3.19374 -6.86939,3.88834 l -1.53623,0.52853 -1.61222,-0.0142 c -0.88673,-0.008 -2.26707,-0.22634 -3.06744,-0.48561 z m -28.38023,-3.27047 c -0.59668,-0.4531 -0.98738,-1.60345 -0.99433,-2.92764 -0.0141,-2.68061 -3.58331,-6.60855 -7.63175,-8.39871 -1.85891,-0.82199 -3.72917,-2.99355 -3.11079,-3.61193 1.78359,-1.78359 19.97648,6.69332 20.95035,9.76174 l 0.16064,0.5061 -0.41069,0.62678 c -0.55533,0.84755 -3.15725,2.81971 -4.84992,3.67608 l -1.38027,0.69831 h -1.14886 c -0.63186,0 -1.34484,-0.14882 -1.58438,-0.33073 z m -28.108322,-26.49023 -1.85208,-1.91236 -2.77812,-1.37701 c -1.52797,-0.75736 -2.92696,-1.37658 -3.10886,-1.37605 -0.8993,0.003 2.09787,-3.25522 3.56338,-3.87329 2.14897,-0.90632 4.20088,0.95902 6.861892,6.23796 1.5348,3.04475 1.48833,4.27811 -0.15943,4.232 l -0.67469,-0.0189 -1.852092,-1.91236 z M 95.94209,154.8362 c -0.35217,-0.56983 0.1108,-1.54699 1.40721,-2.9701 0.70688,-0.77597 1.50972,-1.82757 1.78409,-2.33689 l 0.49885,-0.92604 0.002,-2.33639 0.002,-2.33638 0.51359,-0.3756 c 1.41957,-1.03815 5.12066,0.37448 6.13861,2.34298 l 0.39766,0.769 -0.1835,1.10049 c -0.27388,1.64239 -1.28275,3.43613 -2.53594,4.50882 l -1.1147,0.95413 -2.13702,0.83286 c -1.17537,0.45807 -2.68711,0.88915 -3.35943,0.95797 l -1.22239,0.12513 -0.19158,-0.30998 z M 52.673238,137.2659 c 0,-1.29229 2.95875,-4.36089 7.47106,-7.74843 4.89533,-3.67509 8.97871,-7.07047 10.71905,-8.91302 l 1.38906,-1.47065 v -1.02989 -1.02989 l -1.00809,-0.81012 -1.00809,-0.81013 -0.34303,-1.14493 c -0.36583,-1.22104 -0.73971,-6.31921 -0.46343,-6.31921 2.46149,0 9.57411,4.55435 10.76829,6.89514 l 0.50672,0.99324 1.660802,-0.36522 c 0.91343,-0.20087 6.12564,-1.3192 11.58267,-2.48518 5.45703,-1.16598 12.18406,-2.664 14.94896,-3.32894 9.49764,-2.28412 16.88576,-3.75337 17.62863,-3.50575 0.60042,0.20014 -5.87688,5.73404 -7.99133,6.82742 l -0.94603,0.4892 -5.32824,0.81507 c -10.61499,1.62379 -29.75971,4.24835 -30.98945,4.24835 -0.12072,0 -0.295892,0.47773 -0.389252,1.06161 l -0.16976,1.06161 -0.94711,1.04833 c -1.87989,2.08082 -4.95854,4.09845 -15.05288,9.86509 -8.5588,4.88943 -12.03855,6.52438 -12.03855,5.6563 z m 30.559382,-9.41312 c -1.14403,-0.47894 -2.211002,-2.40999 -2.237342,-4.04926 l -0.0116,-0.72256 0.595312,-0.12644 c 0.32742,-0.0695 3.21469,-0.54992 6.41614,-1.06752 3.20146,-0.5176 8.55928,-1.41475 11.90626,-1.99368 3.34697,-0.57892 6.40865,-1.0533 6.80371,-1.05418 l 0.71829,-0.002 0.2803,0.52374 c 0.38823,0.72542 0.0953,1.66994 -0.77697,2.50567 l -0.73705,0.70614 -2.96824,1.04554 c -8.25911,2.90919 -18.14935,5.0042 -19.9888,4.23414 z M 80.189908,91.224215 c 0,-0.05316 -0.24553,-1.868866 -0.54562,-4.034896 -0.30009,-2.166032 -0.8266,-6.243447 -1.17003,-9.060918 l -0.62441,-5.122677 -2.5418,-2.587122 -2.54179,-2.58712 0.31293,-0.686818 0.31294,-0.686819 1.08379,-0.518549 c 0.59608,-0.285202 2.18183,-0.706771 3.52388,-0.936818 l 2.4401,-0.418269 0.734902,0.17064 c 0.4042,0.09385 0.99773,0.3345 1.31897,0.534768 l 0.58406,0.364125 1.89113,-0.397812 c 1.04012,-0.218797 3.87292,-0.657042 6.29511,-0.973881 l 4.40397,-0.576066 6.61458,-0.01704 6.61459,-0.01704 2.24896,0.483735 c 1.23693,0.266055 3.1043,0.839444 4.14973,1.274194 l 1.90077,0.790459 1.19323,1.050319 1.19322,1.050319 0.73079,1.493676 0.73079,1.493679 -0.0107,1.738058 -0.0107,1.738061 -0.44259,1.029155 c -0.24342,0.566034 -1.01945,1.875721 -1.72452,2.910417 -0.70506,1.034693 -1.55406,2.414759 -1.88667,3.066814 l -0.60474,1.185553 -0.0141,1.063406 c -0.008,0.584872 0.0783,1.426628 0.19135,1.870567 l 0.20549,0.807164 -0.67599,0.307999 c -3.25356,1.482418 -16.89544,2.618139 -27.01272,2.248873 l -4.10634,-0.149865 v 0.28521 c 0,0.156867 -0.94866,0.651053 -2.10813,1.09819 -1.978392,0.76295 -2.654372,0.945375 -2.654372,0.716328 z m 26.517542,-7.63475 1.5144,-0.699625 0.53513,-0.877715 0.53512,-0.877713 -0.001,-2.116667 c -0.002,-2.76616 -0.43162,-6.485315 -0.9756,-8.436702 l -0.43419,-1.557539 -0.94755,-0.996074 -0.94754,-0.996077 -1.31988,-0.197927 -1.31988,-0.197929 -3.30995,0.293029 c -1.82048,0.161165 -6.08497,0.684982 -9.47665,1.164039 l -6.16669,0.871014 0.17436,0.926042 c 0.50756,2.695694 0.63949,4.55114 0.64433,9.061978 l 0.005,4.960938 0.33072,0.03584 c 1.4608,0.158289 11.7737,0.416692 15.27969,0.382854 l 4.36563,-0.04214 z M 51.879658,62.179945 c -3.53069,-0.289414 -3.56334,-0.304535 -1.86045,-0.86152 10.58298,-3.461514 24.48131,-16.202477 34.872122,-31.968171 3.67502,-5.576004 4.559,-8.748394 4.559,-16.361156 0,-1.689434 0.0717,-3.143422 0.15938,-3.2310838 0.50409,-0.5040865 6.77817,2.2851028 9.26864,4.1204448 l 1.62282,1.195924 0.70989,1.450964 0.70989,1.450964 -0.28951,1.075152 c -0.33657,1.249902 -1.57626,2.982195 -3.67876,5.140518 l -1.49089,1.530485 0.39687,0.251401 c 0.21828,0.138271 0.55351,0.253225 0.74495,0.255453 1.988,0.02314 9.91144,5.284455 19.09881,12.681972 6.57135,5.291145 13.53271,9.156326 19.95464,11.079498 l 1.34432,0.402579 8.33437,0.15698 8.33438,0.15698 -6.74688,3.357126 c -7.4085,3.686342 -10.08103,4.716886 -12.74464,4.914421 l -1.76443,0.130852 -1.19112,-0.576609 c -0.65511,-0.317135 -2.36143,-1.557615 -3.79182,-2.756622 C 127.00086,54.57749 124.69945,52.75976 123.317,51.737098 119.05556,48.58471 109.79207,40.566946 101.38364,32.753271 l -2.75105,-2.55647 -1.61457,-0.788094 C 96.13001,28.975254 95.15721,28.589498 94.85624,28.55147 l -0.54721,-0.06914 -2.21822,2.778125 c -3.53695,4.429701 -25.382142,25.891873 -30.771512,30.231981 -1.14157,0.919316 -4.03811,1.130276 -9.43964,0.687509 z M 90.50866,58.885428 c -0.65484,-0.05357 -3.27422,-0.228724 -5.82083,-0.389229 l -4.630212,-0.291822 -0.84623,-0.520515 c -0.46543,-0.286284 -0.92265,-0.761261 -1.01604,-1.055504 l -0.1698,-0.534993 0.42188,-0.466167 c 0.23203,-0.256392 0.86784,-0.61186 1.41291,-0.789929 l 0.99103,-0.32376 5.075352,-0.244835 c 8.44783,-0.407522 11.28549,-0.840534 15.35834,-2.343616 2.99486,-1.105249 5.11381,-1.62496 6.80686,-1.669505 l 1.43323,-0.03771 0.43522,0.361204 c 0.4869,0.404093 1.57965,2.518341 2.50175,4.840417 l 0.6104,1.537136 -0.23936,0.239363 c -0.13165,0.131649 -2.08313,0.55262 -4.33662,0.93549 l -4.09725,0.696127 -6.35,0.07762 c -3.4925,0.0427 -6.88578,0.03379 -7.54063,-0.01979 z"
       id="path401" /></g></svg>
