<?xml version="1.0" encoding="UTF-8" standalone="no"?>
<!-- Created with Inkscape (http://www.inkscape.org/) -->

<svg
   width="77.958557mm"
   height="89.922417mm"
   viewBox="0 0 77.958557 89.922417"
   version="1.1"
   id="svg5"
   xml:space="preserve"
   inkscape:version="1.2.2 (b0a8486541, 2022-12-01)"
   sodipodi:docname="aikido_sound.svg"
   xmlns:inkscape="http://www.inkscape.org/namespaces/inkscape"
   xmlns:sodipodi="http://sodipodi.sourceforge.net/DTD/sodipodi-0.dtd"
   xmlns="http://www.w3.org/2000/svg"
   xmlns:svg="http://www.w3.org/2000/svg"><sodipodi:namedview
     id="namedview7"
     pagecolor="#ffffff"
     bordercolor="#666666"
     borderopacity="1.0"
     inkscape:showpageshadow="2"
     inkscape:pageopacity="0.0"
     inkscape:pagecheckerboard="0"
     inkscape:deskcolor="#d1d1d1"
     inkscape:document-units="mm"
     showgrid="false"
     inkscape:zoom="0.66331437"
     inkscape:cx="-36.181939"
     inkscape:cy="537.45255"
     inkscape:window-width="1516"
     inkscape:window-height="1230"
     inkscape:window-x="1182"
     inkscape:window-y="505"
     inkscape:window-maximized="0"
     inkscape:current-layer="layer1" /><defs
     id="defs2" /><g
     inkscape:label="Ebene 1"
     inkscape:groupmode="layer"
     id="layer1"
     transform="translate(-63.740707,-76.381684)"><g
       id="g428"
       transform="matrix(0.8740687,0,0,0.8740687,13.727653,15.774776)"><path
         style="fill:#000000;stroke-width:0.0813097"
         d="m 82.241562,166.23612 c -1.076457,-0.14537 -2.876897,-0.75201 -6.586058,-2.21913 -3.044554,-1.20424 -3.358872,-1.30315 -4.146776,-1.30492 -1.170622,-0.002 -2.320849,0.51747 -4.833159,2.18543 -1.22981,0.8165 -1.59028,1.02099 -1.59028,0.90216 0,-0.17786 0.396654,-0.83562 0.670037,-1.11111 0.362797,-0.36559 1.624179,-1.33333 2.267409,-1.73955 l 0.376201,-0.23758 0.04245,-0.81901 c 0.06929,-1.33688 0.321368,-1.86993 1.661955,-3.51436 0.614667,-0.75398 1.276377,-1.92757 1.370893,-2.43138 0.09973,-0.53161 -0.08134,-0.89039 -0.863934,-1.71188 -1.233332,-1.29464 -1.619966,-2.0748 -1.23643,-2.49489 0.298738,-0.3272 1.728315,-2.36943 1.728315,-2.46899 0,-0.42527 -0.921674,-0.47247 -1.550777,-0.0794 -0.197996,0.12371 -0.534245,0.34806 -0.747218,0.49857 -0.525395,0.3713 -1.21847,0.62721 -1.81955,0.67186 -0.42882,0.0319 -0.523483,0.0128 -0.670802,-0.13444 -0.09434,-0.0943 -0.171526,-0.24284 -0.171526,-0.33001 0,-0.32985 1.06264,-0.91353 1.910772,-1.04955 0.823745,-0.13211 2.09757,-0.70954 2.88648,-1.30846 0.377923,-0.28691 0.490221,-0.33287 0.724888,-0.2967 0.34574,0.0533 0.755597,0.43995 0.94253,0.88917 0.07747,0.18617 0.182213,0.42903 0.232759,0.53968 0.05054,0.11064 0.357175,0.46592 0.681396,0.78948 0.728746,0.72728 0.768021,0.93808 0.264093,1.41745 -0.362211,0.34456 -0.763708,0.4897 -1.900015,0.68685 -0.853903,0.14815 -0.95445,0.19309 -1.198268,0.5355 l -0.182618,0.25646 0.156638,0.29255 c 0.111866,0.20892 0.423886,0.47086 1.091693,0.91647 0.993395,0.66284 1.907305,1.53531 2.191238,2.09186 0.235818,0.46225 0.223022,1.14406 -0.03174,1.69126 -0.298861,0.64191 -0.825621,1.08681 -2.010697,1.69828 -1.175255,0.60641 -1.769793,1.08788 -2.066604,1.67361 -0.185291,0.36565 -0.400517,1.19118 -0.329158,1.26254 0.01675,0.0168 0.213134,-0.0415 0.436384,-0.12952 0.597274,-0.23542 1.560467,-0.41513 2.225,-0.41513 1.400605,0 3.942154,0.58973 6.130989,1.42262 1.710332,0.6508 5.637363,1.29214 7.927664,1.29468 1.010902,7.3e-4 1.239096,-0.023 1.60059,-0.16919 0.614503,-0.24853 2.095671,-1.1136 4.131713,-2.41313 4.048358,-2.5839 4.411993,-2.78878 4.605825,-2.59494 0.156876,0.15687 -0.01856,0.42572 -0.485134,0.74344 -0.253977,0.17295 -1.404505,1.28536 -2.556737,2.47202 -1.759701,1.81229 -2.231697,2.25063 -2.94931,2.73911 -1.387514,0.94447 -1.962042,1.14398 -3.737126,1.29775 -1.091364,0.0945 -3.906771,0.0973 -4.593983,0.004 z m -4.603824,-4.67914 c -0.22039,-0.46432 -0.366385,-0.66138 -0.598606,-0.80797 -0.446736,-0.28202 -0.510547,-0.53757 -0.399361,-1.59946 0.133725,-1.27716 0.05347,-4.99967 -0.121261,-5.62434 -0.153687,-0.54943 -0.465779,-1.03516 -0.940915,-1.46442 l -0.335597,-0.30319 0.220367,-0.40488 c 0.610662,-1.122 1.014731,-1.29165 1.729901,-0.72634 l 0.413036,0.32648 0.604711,-0.10288 c 0.564989,-0.0961 0.640594,-0.13462 1.150737,-0.5859 0.624164,-0.55215 0.892019,-1.04058 0.979682,-1.78646 l 0.05632,-0.47922 -0.358216,0.0571 c -1.106196,0.17622 -3.042357,0.66735 -3.640052,0.92335 l -0.679937,0.29121 -0.283238,-0.15254 c -0.155781,-0.0839 -0.384638,-0.30039 -0.508569,-0.4811 -0.290498,-0.42359 -0.734806,-1.30582 -0.734806,-1.45904 0,-0.15431 0.384853,-0.42558 0.82805,-0.58365 0.200904,-0.0716 0.888495,-0.15949 1.608329,-0.20544 0.691567,-0.0442 1.276286,-0.0992 1.299381,-0.12225 0.0816,-0.0816 -0.664606,-1.41729 -1.501773,-2.68811 -0.759909,-1.15357 -0.83374,-1.29751 -0.712256,-1.38861 0.248707,-0.1865 0.56139,-0.11547 0.97151,0.22068 0.216283,0.17729 0.868901,0.65821 1.450268,1.06873 0.58136,0.41052 1.247703,0.90741 1.480762,1.10421 l 0.423748,0.3578 0.246714,-0.34057 c 0.467665,-0.6456 0.998878,-2.01152 1.46725,-3.77278 0.179511,-0.67502 0.42506,-1.01637 0.731146,-1.01637 0.168607,0 1.076539,0.75708 2.053488,1.71229 0.715373,0.69945 0.754568,0.83108 0.385975,1.29647 -0.347395,0.43863 -0.844964,0.72884 -2.235764,1.30406 -1.978656,0.81834 -2.317315,1.01416 -2.317315,1.33983 0,0.0988 -0.07548,0.27565 -0.167721,0.39292 l -0.167727,0.21323 0.228707,-0.0407 c 0.12579,-0.0224 0.850723,-0.11273 1.610963,-0.2008 5.51087,-0.63837 6.474334,-0.77308 7.639271,-1.06817 0.647445,-0.16399 0.983042,-0.15846 1.447041,0.0239 0.122979,0.0484 0.223611,0.13748 0.223611,0.1981 0,0.2132 -0.395394,0.36408 -1.594505,0.60847 -1.767149,0.36016 -7.810454,1.92267 -7.979392,2.06308 -0.01099,0.009 0.126182,0.40472 0.304908,0.87901 0.331839,0.88059 0.389999,1.24983 0.240788,1.52863 -0.08113,0.15161 -0.04743,0.15728 0.93506,0.15728 h 1.019226 v -0.30801 c 0,-0.38486 0.292849,-0.97082 0.595456,-1.19146 0.343383,-0.25036 0.874562,-0.22087 1.520212,0.0844 0.682831,0.32287 1.509183,1.08328 1.758656,1.61832 l 0.189552,0.40655 8.7e-4,5.10477 c 8.7e-4,4.41113 -0.01622,5.14545 -0.124272,5.40409 -0.157647,0.37731 -0.34797,0.58987 -0.52817,0.58987 -0.205692,0 -1.764106,-1.54059 -1.830061,-1.80914 l -0.05492,-0.2236 -1.02788,7.2e-4 c -1.000077,7.3e-4 -2.032147,0.0573 -4.666473,0.25375 l -1.280624,0.0955 -0.0013,0.33295 c -0.003,0.77087 -0.324314,1.59326 -0.622626,1.59326 -0.06096,0 -0.241999,-0.27634 -0.402316,-0.61408 z m 4.969718,-2.55307 c 1.565202,-0.14198 2.891564,-0.27297 2.947465,-0.2911 0.07178,-0.0233 0.101637,-0.25788 0.101637,-0.79872 v -0.76575 l -0.352374,-0.0529 c -0.387191,-0.0581 -2.772009,0.0556 -5.052845,0.24089 -0.803942,0.0653 -1.508285,0.11873 -1.565207,0.11873 -0.117296,0 -0.133689,0.44036 -0.04957,1.33128 l 0.05277,0.55886 0.536145,-0.0416 c 0.294877,-0.0229 1.816764,-0.15777 3.381974,-0.29975 z m -0.04068,-2.76165 c 0.603722,-0.0439 1.547087,-0.10418 2.096372,-0.13381 l 0.9987,-0.0539 -0.02293,-0.86493 -0.02302,-0.86493 -1.138332,-0.0257 c -1.196775,-0.0271 -5.820993,0.20622 -5.900691,0.29772 -0.02555,0.0294 -0.03104,0.49349 -0.0123,1.03151 l 0.03414,0.9782 1.435207,-0.14209 c 0.789358,-0.0781 1.929154,-0.17805 2.532877,-0.22201 z m -1.178986,-2.76761 c 1.207447,-0.0907 2.652719,-0.19264 3.211722,-0.22657 l 1.016366,-0.0617 -0.02533,-0.604 c -0.01391,-0.3322 -0.07608,-0.72553 -0.138145,-0.87408 l -0.112845,-0.27007 -0.91888,1.5e-4 c -0.960124,1.6e-4 -4.965304,0.20439 -5.781586,0.29482 -0.368413,0.0408 -0.461975,0.0784 -0.426298,0.1714 0.02511,0.0656 0.08431,0.38071 0.131501,0.70045 0.187506,1.2706 0.12275,1.1328 0.507814,1.08062 0.187163,-0.0254 1.328207,-0.12031 2.53565,-0.21099 z m -10.784827,-7.17243 c -0.07332,-0.0597 -0.178492,-0.25481 -0.233708,-0.43369 -0.14379,-0.46585 -0.719519,-1.41258 -1.561189,-2.56724 -0.672856,-0.92307 -0.718487,-1.00952 -0.584575,-1.10743 0.238971,-0.17474 0.404236,-0.12543 0.942728,0.28127 0.282174,0.21312 0.677695,0.49345 0.878936,0.62294 1.123199,0.72279 2.718289,2.15142 2.809975,2.51673 0.06676,0.26601 0.01196,0.34259 -0.396538,0.55404 -0.424263,0.21962 -1.642012,0.30715 -1.855629,0.13338 z m 7.183638,-11.26816 c -0.444249,-0.23855 -0.94866,-0.80128 -1.341139,-1.49619 l -0.373311,-0.66099 0.04828,-1.57412 c 0.03831,-1.24942 0.02681,-1.57414 -0.05574,-1.57414 -0.168106,0 -1.26173,0.69114 -2.441923,1.54324 -1.16525,0.84131 -1.896172,1.24356 -3.36118,1.84978 -0.803979,0.33269 -0.994123,0.37972 -1.665963,0.41201 -1.264481,0.0608 -1.199591,-0.19096 0.238884,-0.92676 2.728581,-1.3957 4.20937,-2.94517 4.333513,-4.53448 0.03617,-0.46299 0.228483,-0.74359 0.568064,-0.82881 0.263354,-0.0661 0.349799,0.002 0.932817,0.73687 0.54566,0.68761 1.292224,1.42292 1.444718,1.42292 0.09015,0 0.111047,-0.30595 0.111047,-1.62619 0,-1.49488 -0.01149,-1.62612 -0.14229,-1.62532 -0.33701,0.002 -2.374372,0.24288 -2.761547,0.32642 -0.233146,0.0503 -0.544154,0.17878 -0.691133,0.2855 -0.60898,0.4422 -1.019386,0.60685 -1.512616,0.60685 -0.397486,0 -0.532739,-0.0394 -0.799992,-0.23299 -0.38549,-0.27924 -1.328957,-1.52427 -1.328957,-1.75374 0,-0.0909 1.355801,-0.0435 2.395349,0.0838 1.179458,0.14442 2.274523,0.12108 3.784163,-0.0807 0.514282,-0.0687 0.962499,-0.12621 0.996039,-0.12773 0.157976,-0.007 -0.02439,-2.94781 -0.225773,-3.64053 l -0.125482,-0.43165 -0.517013,0.0529 c -0.490297,0.0502 -0.523958,0.0423 -0.651345,-0.15203 -0.220971,-0.33725 -0.257824,-0.77635 -0.07708,-0.91839 0.36467,-0.28657 0.810061,-0.46092 1.177495,-0.46092 0.438274,0 1.131077,0.2878 1.476217,0.61324 l 0.2236,0.21085 v 2.3285 2.3285 l 0.6708,-0.0506 c 0.807862,-0.0609 3.716993,-0.20607 4.152434,-0.20715 0.275175,-7.3e-4 0.307603,0.0199 0.284583,0.18094 -0.01661,0.11606 -0.152128,0.25118 -0.375062,0.37393 -0.295718,0.16282 -0.525668,0.20311 -1.504226,0.2636 -1.618361,0.10004 -3.095897,0.24386 -3.164766,0.30805 -0.032,0.0298 -0.02721,0.89523 0.01068,1.92308 0.06686,1.81339 0.07986,1.91587 0.438405,3.45437 0.203226,0.87204 0.445388,1.85922 0.538135,2.19372 0.227116,0.81909 0.223406,1.255 -0.01208,1.41993 -0.232152,0.16261 -0.370354,0.15949 -0.696633,-0.0157 z m 13.119955,-1.81795 c -0.985166,-0.19952 -2.289347,-1.01689 -3.378108,-2.11718 -1.257298,-1.2706 -3.694852,-5.31818 -4.49773,-7.4685 -0.5233,-1.40155 -0.585245,-1.87246 -0.585581,-4.45166 -1.66e-4,-1.47745 -0.0293,-2.29666 -0.08162,-2.29613 -0.306993,0.004 -2.404747,0.37501 -3.490116,0.61873 -1.788601,0.40163 -3.146706,0.79329 -5.754472,1.65952 -2.498046,0.82979 -3.293522,1.05453 -3.732323,1.05453 -0.674623,0 -1.911133,-0.56373 -2.179669,-0.99373 -0.133777,-0.2142 -0.04382,-0.43598 0.218688,-0.53917 0.121496,-0.0478 1.995476,-0.39927 4.164401,-0.78117 2.16893,-0.38189 4.858236,-0.87782 5.976239,-1.10209 1.118007,-0.22427 2.643025,-0.50663 3.38892,-0.62746 l 1.356192,-0.21969 0.0499,-0.26598 c 0.06286,-0.33509 0.241316,-0.43057 0.804675,-0.43057 0.431749,0 0.473298,0.0204 1.200089,0.58949 0.414065,0.32422 0.882968,0.77139 1.04201,0.99371 0.26264,0.36716 0.288698,0.45289 0.284191,0.93506 -0.0039,0.39635 -0.0816,0.74714 -0.307451,1.38459 -0.40491,1.14283 -0.541385,1.76449 -0.541075,2.46466 8.7e-4,1.42975 0.579001,3.57816 1.485478,5.51797 0.915174,1.95841 2.030778,2.95434 3.694716,3.29842 0.572683,0.11842 0.744531,0.12323 1.257646,0.0352 0.800865,-0.13733 1.35884,-0.40796 1.906374,-0.92463 0.57281,-0.5405 0.962722,-1.11077 1.475895,-2.15852 0.495025,-1.01069 1.08396,-1.97644 1.17207,-1.92198 0.13342,0.0824 0.0567,1.00973 -0.21541,2.60471 -0.153787,0.90128 -0.304898,2.00585 -0.3358,2.45459 -0.05336,0.77442 -0.06903,0.82818 -0.309168,1.05745 -0.425556,0.40632 -1.566383,1.12383 -2.218595,1.39534 -0.685913,0.28555 -1.246962,0.35663 -1.85037,0.23443 z m -9.051146,-1.11129 c -0.201375,-0.15503 -0.345633,-0.56224 -0.345633,-0.97569 0,-0.40818 -0.212023,-0.83145 -0.633896,-1.26551 -0.465319,-0.47874 -1.254761,-1.05605 -1.734947,-1.26873 -0.444847,-0.19705 -0.706746,-0.43868 -0.85184,-0.78594 -0.06215,-0.14875 -0.113003,-0.29336 -0.113003,-0.32135 0,-0.0683 0.738549,0.0308 1.341605,0.18003 1.502107,0.3717 3.363641,1.28343 4.557426,2.23208 0.812029,0.6453 0.811838,0.80584 -0.0017,1.45324 -0.594401,0.47298 -1.443319,0.89688 -1.791142,0.8944 -0.134164,-7.3e-4 -0.326223,-0.0651 -0.426804,-0.14253 z m -8.471316,-7.98005 c -0.581493,-0.61863 -1.220945,-1.05641 -2.032531,-1.39149 -0.752693,-0.31076 -0.752806,-0.31295 -0.04961,-0.95563 0.588026,-0.53742 0.927577,-0.65536 1.285403,-0.44644 0.390398,0.22793 0.9898,1.01863 1.402354,1.84991 0.399529,0.80503 0.461438,1.20497 0.207563,1.34084 -0.263705,0.14114 -0.344087,0.10188 -0.813183,-0.39719 z m 4.823836,-0.28472 c -0.06149,-0.16025 0.09329,-0.42921 0.49933,-0.86765 0.564188,-0.60921 0.64655,-0.82282 0.650857,-1.68803 0.0039,-0.72172 0.01395,-0.76618 0.203647,-0.8712 0.433183,-0.23987 1.104674,-0.0389 1.67871,0.50253 0.280811,0.26485 0.29032,0.29222 0.247045,0.71148 -0.05023,0.48679 -0.35005,1.14239 -0.640502,1.4006 -0.698025,0.62054 -2.499848,1.17511 -2.639087,0.81227 z m -13.285266,-5.35468 c 0,-0.31356 0.982877,-1.385 1.870114,-2.03862 1.758125,-1.29521 3.64952,-2.87001 3.973826,-3.30865 0.29852,-0.40377 0.255787,-0.75807 -0.135032,-1.11958 -0.389084,-0.3599 -0.486081,-0.66422 -0.558635,-1.75272 l -0.05348,-0.80233 0.195796,0.0579 c 0.410427,0.12144 1.485601,0.60969 1.912921,0.86867 0.575419,0.34874 1.044684,0.80279 1.25427,1.21362 0.119213,0.23368 0.206094,0.3153 0.30513,0.28668 0.07616,-0.022 1.199551,-0.26439 2.496437,-0.53861 3.308811,-0.69965 5.831399,-1.26224 7.114573,-1.5867 1.169591,-0.29574 3.245084,-0.71833 3.984156,-0.81121 l 0.4472,-0.0562 -0.4472,0.46215 c -0.579206,0.59859 -1.658929,1.46693 -2.073387,1.66748 -0.445155,0.2154 -4.478233,0.84204 -9.484107,1.47359 l -2.084955,0.26304 -0.0413,0.30794 c -0.02271,0.16936 -0.118292,0.40581 -0.212387,0.52543 -0.50018,0.63588 -2.314727,1.81631 -5.618112,3.6548 -2.230838,1.24157 -2.845827,1.50808 -2.845827,1.23326 z m 9.21303,-3.01792 c -0.25228,-0.21228 -0.512928,-0.79874 -0.512928,-1.15409 0,-0.16224 0.06238,-0.19156 0.58949,-0.27703 0.324225,-0.0526 1.540814,-0.25737 2.703538,-0.45511 4.536524,-0.77148 4.738427,-0.79993 4.87444,-0.68706 0.245907,0.20409 0.07189,0.75481 -0.31954,1.01129 -0.24728,0.16202 -2.553643,0.9373 -3.520436,1.18339 -1.138248,0.28974 -2.1432,0.47777 -2.867509,0.53653 -0.668312,0.0542 -0.701497,0.0487 -0.947055,-0.15792 z m -0.87457,-12.14405 c -0.07695,-0.57018 -0.242105,-1.83481 -0.367021,-2.81028 l -0.227118,-1.773589 -0.741751,-0.756375 c -0.425328,-0.433713 -0.741747,-0.824372 -0.741747,-0.915767 0,-0.189866 0.279866,-0.46956 0.585826,-0.585476 0.120965,-0.04583 0.585981,-0.144296 1.033365,-0.218833 0.797592,-0.132875 0.820003,-0.132259 1.151272,0.03161 0.336165,0.166323 0.341804,0.166403 1.132408,0.01573 1.711429,-0.326113 3.064842,-0.442762 5.16312,-0.445017 2.476587,-0.0029 3.217007,0.12324 4.399857,0.748124 0.513242,0.271139 1.066037,0.936104 1.22082,1.468535 0.250183,0.860618 0.07097,1.468173 -0.818282,2.774128 -0.531558,0.78065 -0.644342,1.27489 -0.445784,1.95354 0.07346,0.25109 -0.829673,0.51273 -2.39239,0.6931 -1.539862,0.17771 -4.607538,0.29665 -6.052083,0.23463 -1.06124,-0.0456 -1.256527,-0.0352 -1.341603,0.0711 -0.09423,0.1178 -1.140243,0.55144 -1.330172,0.55144 -0.05226,0 -0.1464,-0.42672 -0.228717,-1.0367 z m 8.108579,-1.23767 c 0.408773,-0.12307 0.839963,-0.51305 0.956,-0.86462 0.09488,-0.28749 0.07957,-0.64487 -0.09527,-2.22405 -0.148739,-1.343404 -0.550968,-2.031216 -1.267757,-2.167855 -0.41131,-0.07841 -2.28698,0.08174 -3.973749,0.339273 -0.755743,0.11538 -1.58447,0.230745 -1.84161,0.256355 -0.257141,0.02559 -0.467521,0.05061 -0.467513,0.05561 7e-6,0.0051 0.05489,0.29582 0.121964,0.646332 0.0836,0.436867 0.121948,1.159272 0.121948,2.296995 0,1.52211 0.01181,1.66062 0.14229,1.67108 0.07826,0.007 0.910666,0.0384 1.849789,0.0713 2.137453,0.075 4.052688,0.0404 4.453909,-0.0804 z M 64.678792,95.410199 c -0.469532,-0.04147 -0.888635,-0.08704 -0.93134,-0.101285 -0.04271,-0.01421 0.121927,-0.09089 0.365844,-0.170354 1.085541,-0.353637 3.277448,-1.656393 4.57127,-2.716926 0.70387,-0.57695 2.636212,-2.547398 3.443027,-3.510924 1.385516,-1.654617 2.994945,-3.90642 3.489289,-4.881953 0.337466,-0.665966 0.520973,-1.623939 0.622237,-3.248371 0.05157,-0.827322 0.101125,-1.514584 0.110114,-1.527244 0.04229,-0.0596 1.638251,0.568474 2.098308,0.82575 0.686136,0.383712 1.289003,0.93572 1.476833,1.352256 0.133977,0.297118 0.140082,0.382828 0.05097,0.715982 -0.11475,0.429058 -0.310828,0.708136 -1.042355,1.483594 -0.282133,0.299076 -0.512972,0.56677 -0.512972,0.594874 0,0.02813 0.05689,0.05112 0.126421,0.05112 0.221152,0 1.275275,0.483989 1.896567,0.870798 0.771448,0.480277 2.907425,2.050503 3.953246,2.906146 1.695529,1.387198 2.817739,2.113439 4.309399,2.788838 2.067822,0.936271 2.378854,0.994545 5.342657,1.000998 l 2.300419,0.0051 -2.073386,1.034575 c -2.215499,1.105502 -3.154003,1.469659 -3.961038,1.536967 -0.648453,0.05409 -1.089676,-0.153496 -2.055852,-0.967231 -0.380119,-0.320153 -1.038731,-0.839098 -1.46357,-1.153233 -1.353877,-1.001049 -3.64011,-2.966907 -6.206152,-5.336461 -1.35478,-1.251051 -1.923506,-1.671626 -2.531989,-1.872441 -0.304035,-0.100342 -0.319648,-0.09615 -0.483633,0.129918 -0.978875,1.349457 -3.243605,3.687891 -6.592894,6.807468 -1.252167,1.166284 -2.525121,2.359976 -2.828796,2.652642 -0.303672,0.292666 -0.659574,0.577617 -0.790893,0.633229 -0.329,0.139315 -1.655372,0.186944 -2.681736,0.0963 z m 11.545877,-1.052282 c -2.836838,-0.146732 -2.916622,-0.157223 -3.219599,-0.423236 -0.31229,-0.274198 -0.339237,-0.388896 -0.134413,-0.572106 0.275083,-0.246052 1.009911,-0.370669 2.472465,-0.419284 2.091949,-0.06953 3.13615,-0.230775 4.54047,-0.701067 1.357448,-0.454602 2.058398,-0.591089 2.462519,-0.479509 0.316057,0.08727 0.538516,0.436911 0.937902,1.474112 0.195817,0.508532 0.21885,0.632185 0.12449,0.668395 -0.232347,0.08916 -2.044097,0.369581 -2.915089,0.451194 -0.9687,0.09077 -2.532268,0.09132 -4.268745,0.0015 z"
         id="path248" /><path
         style="fill:#000000;stroke-width:0.15524"
         d="m 102.09754,115.48326 c 0.004,-0.064 0.1414,-0.36093 0.30511,-0.65977 0.16371,-0.29883 0.44584,-0.82277 0.62696,-1.1643 0.18111,-0.34152 0.65507,-1.23083 1.05323,-1.97623 0.39817,-0.7454 0.99943,-1.88031 1.33613,-2.52201 0.42802,-0.81575 0.65425,-1.10856 0.75203,-0.97333 0.097,0.13424 0.11334,0.11091 0.0532,-0.0762 -0.0508,-0.15803 0.23235,-0.87383 0.68394,-1.72921 0.4238,-0.80276 0.77055,-1.52156 0.77055,-1.59735 0,-0.0758 -0.2969,-0.32757 -0.65977,-0.55954 -1.86432,-1.19174 -4.09757,-3.33387 -5.17299,-4.96193 -1.77292,-2.684 -2.475791,-5.09528 -2.348381,-8.05637 0.0427,-0.99292 0.16212,-1.9631 0.26533,-2.15594 0.10321,-0.19286 0.21998,-0.56804 0.259511,-0.83377 0.18128,-1.21887 1.8944,-4.07127 3.32367,-5.53399 4.83155,-4.94467 12.21058,-7.08838 20.80048,-6.04282 1.43545,0.17472 3.84445,0.75254 5.23086,1.25465 2.35651,0.85346 5.39388,2.56681 6.56895,3.70549 0.22117,0.21432 0.64239,0.59925 0.93604,0.85539 1.16517,1.01635 3.55188,4.24894 3.55188,4.81072 0,0.0889 0.13372,0.41105 0.29716,0.71598 0.16344,0.30494 0.34684,0.88578 0.40758,1.29078 0.0607,0.40499 0.20644,0.77319 0.3238,0.81823 0.3191,0.12245 0.3134,5.17158 -0.006,5.17158 -0.13695,0 -0.26099,0.2476 -0.33052,0.65976 -0.10395,0.61617 -0.6689,2.0725 -1.00871,2.60027 -0.0825,0.12807 -0.21212,0.37486 -0.28814,0.54843 -0.37919,0.8658 -2.59373,3.38898 -2.84056,3.23643 -0.0731,-0.0452 -0.11378,0.002 -0.0903,0.10626 0.0743,0.32843 -2.37853,2.11898 -4.0712,2.9719 -3.04516,1.53443 -4.51335,1.96779 -8.80095,2.59778 -0.61412,0.0902 -2.12842,0.16406 -3.36512,0.16406 h -2.24855 l -1.21444,0.55611 c -0.66795,0.30586 -1.70345,0.78615 -2.30113,1.06732 -0.59767,0.28118 -1.71539,0.79227 -2.48383,1.13577 -0.76844,0.34349 -2.00415,0.91106 -2.74603,1.26127 -0.74188,0.35019 -1.38387,0.63672 -1.42663,0.63672 -0.0428,0 -0.74605,0.31436 -1.56285,0.69859 -0.81679,0.38421 -1.52186,0.69857 -1.56681,0.69857 -0.0449,0 -0.7134,0.31436 -1.48541,0.69858 -1.49712,0.74509 -1.53973,0.76132 -1.52826,0.58215 z m 7.86179,-6.41056 c 0.75214,-0.34532 1.56047,-0.73399 1.79629,-0.86369 0.23581,-0.12969 0.58511,-0.19708 0.7762,-0.14975 0.19108,0.0473 0.25136,0.043 0.13394,-0.01 -0.18624,-0.0834 1.78586,-1.11627 3.31829,-1.73793 0.25614,-0.10391 0.87981,-0.38672 1.38594,-0.62847 0.75781,-0.36196 1.0181,-0.41678 1.47477,-0.31058 1.29091,0.30021 5.62535,-0.0163 8.08369,-0.59026 1.52227,-0.35542 4.06198,-1.41945 6.01367,-2.51946 2.31423,-1.30436 4.93667,-4.55341 5.57298,-6.90465 0.60931,-2.25142 0.38418,-4.97088 -0.58052,-7.01269 -0.52641,-1.11415 -2.23227,-3.48625 -2.86501,-3.98396 -0.20944,-0.16475 -0.4678,-0.38653 -0.57412,-0.49286 -0.38824,-0.38823 -2.19557,-1.58464 -3.35261,-2.21934 -1.99451,-1.0941 -5.12628,-2.07448 -7.61449,-2.38368 -1.41798,-0.1762 -4.90906,-0.21021 -6.45763,-0.0629 -1.39879,0.13306 -3.98571,0.73589 -4.96767,1.1576 -0.17076,0.0733 -0.56627,0.21144 -0.8789,0.3069 -1.00568,0.30708 -3.56732,1.72113 -4.24401,2.34273 -0.25615,0.2353 -0.80688,0.7308 -1.22384,1.10112 -0.93107,0.82692 -2.04399,2.25285 -2.37068,3.03744 -0.13406,0.32199 -0.30106,0.62157 -0.37111,0.66576 -0.07,0.0442 -0.284,0.63797 -0.47545,1.31953 -0.83483,2.97187 -0.11125,6.52115 1.85086,9.07882 0.77528,1.0106 2.49561,2.64131 3.46264,3.28224 1.74328,1.15543 2.88305,1.80882 3.74596,2.14742 0.60174,-0.27269 -1.18394,2.12808 -1.12549,2.2889 0,-0.30916 -0.45974,0.37315 -1.23218,1.82868 -0.4531,0.85382 -0.89306,1.57832 -0.97769,1.61001 -0.11686,0.0438 0.12992,0.31455 0.29901,0.32811 0.0163,0.001 0.64502,-0.28016 1.39716,-0.62549 z m -6.78257,-25.60764 c 0,-0.0854 -0.0308,-0.15524 -0.0685,-0.15524 -0.0377,0 -0.11163,0.0699 -0.16439,0.15524 -0.0528,0.0854 -0.022,0.15525 0.0684,0.15525 0.0904,0 0.1644,-0.0699 0.1644,-0.15525 z m 0.86021,-0.78653 c 0.16708,-0.27033 -0.0232,-0.32759 -0.23613,-0.071 -0.12245,0.14754 -0.13422,0.23661 -0.0313,0.23661 0.0908,0 0.21114,-0.0745 0.26742,-0.16557 z"
         id="path328"
         sodipodi:nodetypes="cssssssssssssssssssssssssssscssscssssssssccsssssssssssssssssssssssssccsscsssssssssss" /></g></g></svg>
